<?xml version="1.0" standalone="no"?>
<!DOCTYPE svg PUBLIC "-//W3C//DTD SVG 20010904//EN"
 "http://www.w3.org/TR/2001/REC-SVG-20010904/DTD/svg10.dtd">
<svg version="1.0" xmlns="http://www.w3.org/2000/svg"
 width="676.000000pt" height="676.000000pt" viewBox="0 0 676.000000 676.000000"
 preserveAspectRatio="xMidYMid meet">
<metadata>
Created by potrace 1.14, written by Peter Selinger 2001-2017
</metadata>
<g transform="translate(0.000000,676.000000) scale(0.100000,-0.100000)"
fill="#000000" stroke="none">
<path d="M3775 6501 c6 -11 2 -13 -19 -7 -16 4 -26 2 -26 -4 0 -6 -5 -8 -11
-5 -18 11 -219 11 -219 0 0 -7 -3 -7 -8 0 -4 6 -46 10 -95 10 -51 0 -87 -4
-87 -10 0 -7 -3 -7 -8 0 -4 6 -18 10 -32 10 -14 0 -28 -4 -32 -10 -5 -6 -8 -4
-8 5 0 9 -3 10 -9 5 -6 -6 -83 -8 -190 -5 -116 3 -183 1 -185 -5 -3 -5 -5 -4
-5 4 -1 11 -4 11 -16 1 -8 -7 -15 -9 -15 -4 0 5 -244 9 -550 9 -302 0 -550 -2
-550 -5 0 -3 -61 -4 -136 -2 -100 2 -140 0 -152 -10 -12 -10 -14 -10 -8 0 4 6
2 12 -3 12 -6 0 -11 -5 -11 -11 0 -8 -4 -8 -14 0 -10 9 -16 9 -21 1 -4 -6 -19
-10 -33 -9 -15 2 -33 0 -40 -4 -7 -5 -12 -3 -12 5 0 8 -5 6 -11 -4 -6 -11 -22
-18 -39 -18 -17 0 -30 -4 -30 -9 0 -4 -10 -8 -23 -7 -12 1 -28 -4 -35 -11 -7
-7 -22 -13 -33 -13 -10 0 -19 -5 -19 -11 0 -6 -7 -9 -15 -5 -8 3 -15 2 -15 -3
0 -7 -27 -20 -52 -25 -4 0 -17 -9 -28 -18 -11 -10 -25 -18 -31 -18 -6 0 -20
-10 -31 -22 -11 -13 -16 -16 -12 -8 7 13 6 13 -12 0 -10 -8 -29 -25 -40 -37
-12 -12 -25 -19 -28 -16 -3 4 -18 -8 -32 -25 -15 -17 -31 -29 -36 -26 -4 3 -7
2 -6 -3 4 -13 -49 -63 -57 -55 -4 4 -5 2 -3 -4 2 -7 -9 -23 -24 -37 -15 -14
-24 -28 -21 -31 4 -3 1 -6 -6 -6 -7 0 -9 -5 -5 -12 4 -7 3 -8 -5 -4 -6 4 -14
0 -18 -11 -3 -10 -17 -31 -30 -48 -50 -64 -76 -112 -68 -125 3 -6 0 -10 -8
-10 -13 0 -32 -51 -28 -72 0 -5 -4 -8 -10 -8 -5 0 -8 -4 -4 -9 3 -5 -1 -16 -9
-24 -11 -11 -12 -17 -3 -26 8 -8 8 -11 -2 -11 -7 0 -9 -4 -6 -10 3 -5 2 -10
-2 -10 -5 0 -10 -11 -11 -26 -1 -14 -6 -33 -12 -43 -5 -10 -10 -35 -12 -55 -1
-20 -6 -36 -11 -36 -5 0 -3 -8 4 -17 10 -11 10 -14 2 -9 -10 5 -13 -6 -14 -46
-1 -29 -2 -60 -3 -68 -1 -8 3 -21 9 -29 7 -11 7 -13 -2 -7 -7 4 -13 2 -13 -3
0 -18 5 -26 13 -23 5 1 6 -2 2 -8 -3 -6 -11 -8 -16 -5 -5 4 -9 1 -9 -4 0 -6 5
-11 11 -11 8 0 8 -4 0 -14 -8 -9 -8 -16 -2 -20 12 -8 6 -43 -10 -62 -10 -12
-9 -13 5 -8 14 5 15 3 6 -21 -13 -33 -13 -38 1 -29 8 4 8 0 0 -15 -9 -16 -9
-21 0 -21 9 0 9 -3 0 -14 -7 -8 -8 -17 -3 -20 10 -6 9 -42 -1 -52 -9 -10 -9
-26 1 -21 4 3 8 -6 9 -20 0 -16 -2 -21 -7 -14 -4 7 -7 -5 -6 -27 1 -22 3 -39
6 -37 3 2 6 -16 7 -41 1 -32 -2 -42 -10 -37 -7 4 -6 -1 2 -11 13 -15 13 -19 0
-27 -10 -6 -10 -9 -1 -9 6 0 12 -9 12 -21 0 -13 -4 -18 -13 -14 -6 4 -3 -1 7
-9 11 -9 15 -16 10 -16 -6 0 -8 -39 -7 -96 2 -67 -1 -102 -9 -112 -11 -13 -11
-14 0 -8 10 6 12 -3 9 -38 -2 -25 1 -46 5 -46 5 0 6 -5 3 -10 -4 -6 -12 -7
-18 -3 -9 5 -9 3 -1 -8 13 -17 16 -121 3 -113 -5 3 -6 -2 -3 -10 3 -9 11 -13
18 -9 6 4 5 -1 -3 -10 -7 -9 -10 -17 -6 -17 4 0 1 -8 -6 -17 -10 -11 -10 -14
-1 -9 6 4 12 3 12 -1 0 -5 -6 -15 -12 -22 -11 -11 -10 -12 2 -6 13 8 13 7 1
-8 -11 -14 -11 -17 0 -17 11 0 11 -2 -1 -10 -13 -9 -13 -10 0 -10 13 0 13 -1
0 -10 -13 -9 -13 -10 0 -10 13 0 13 -1 0 -10 -11 -7 -11 -10 -2 -10 8 0 10 -5
6 -12 -11 -17 -11 -58 -1 -58 4 0 5 -5 1 -12 -11 -17 -13 -59 -3 -52 13 8 11
-10 -3 -24 -7 -7 -8 -16 -2 -24 11 -16 11 -38 0 -57 -6 -9 -5 -12 1 -8 12 8
12 -57 0 -69 -4 -4 -7 -12 -7 -18 0 -6 4 -5 9 3 6 9 9 -1 9 -28 1 -29 -3 -39
-11 -34 -9 5 -9 3 -1 -8 6 -8 10 -27 9 -44 0 -16 3 -36 8 -42 5 -8 6 -13 0
-13 -4 0 -8 -37 -7 -82 1 -49 -3 -89 -10 -97 -8 -11 -8 -13 1 -7 17 9 17 -6 1
-23 -11 -11 -10 -12 1 -6 11 6 13 4 7 -11 -12 -28 -14 -48 -8 -59 9 -15 9 -45
0 -39 -4 3 -8 0 -8 -5 0 -6 6 -11 13 -11 8 0 7 -4 -3 -10 -10 -6 -11 -10 -3
-10 9 0 10 -7 3 -25 -6 -16 -6 -25 1 -25 6 0 6 -6 0 -18 -7 -13 -6 -23 2 -31
9 -9 8 -14 -3 -21 -13 -8 -12 -12 5 -25 11 -9 14 -14 8 -10 -7 3 -13 3 -14 -2
-6 -46 -4 -63 5 -63 6 0 4 -5 -4 -10 -13 -9 -13 -10 0 -10 13 0 13 -1 0 -10
-11 -7 -11 -10 -2 -10 8 0 10 -5 5 -12 -11 -19 -13 -67 -2 -74 6 -4 6 -11 -2
-20 -9 -11 -9 -14 1 -14 10 0 10 -3 0 -15 -9 -11 -10 -19 -1 -28 8 -10 7 -17
-1 -25 -9 -9 -9 -12 1 -12 10 0 11 -3 3 -13 -7 -8 -7 -18 -2 -27 12 -19 13
-33 1 -26 -10 7 -9 -13 2 -31 4 -6 3 -14 -3 -18 -5 -3 -10 -12 -10 -18 0 -7 4
-6 10 3 6 10 9 6 8 -18 -1 -18 -5 -29 -11 -25 -6 4 -7 1 -1 -8 13 -21 16 -59
4 -59 -5 0 -10 -5 -10 -11 0 -5 4 -8 9 -5 5 3 11 -3 14 -14 3 -11 1 -18 -3
-15 -5 3 -7 -26 -5 -65 3 -53 1 -69 -8 -63 -9 5 -9 3 -2 -8 12 -17 13 -39 1
-58 -7 -10 -6 -12 4 -6 10 6 12 4 6 -11 -12 -30 -16 -55 -7 -50 4 3 7 -10 7
-29 0 -19 -4 -31 -8 -29 -4 3 -8 1 -8 -5 0 -5 5 -11 11 -13 9 -3 9 -10 -1 -27
-7 -15 -8 -21 -1 -17 14 9 14 0 0 -25 -7 -14 -7 -24 0 -33 7 -9 7 -16 -1 -24
-9 -9 -9 -12 0 -12 7 0 12 -5 12 -11 0 -5 -4 -8 -8 -5 -9 6 -9 -141 1 -150 4
-4 2 -13 -4 -21 -8 -8 -8 -13 -1 -13 11 0 11 -18 -1 -37 -5 -8 -3 -13 4 -13 8
0 8 -4 -1 -15 -10 -12 -10 -15 1 -15 10 0 10 -3 1 -12 -7 -7 -12 -17 -12 -22
0 -6 5 -4 10 4 6 9 10 10 10 3 0 -6 -5 -15 -11 -19 -8 -4 -7 -9 2 -15 12 -8
11 -11 -1 -19 -12 -8 -13 -11 -1 -19 11 -7 11 -9 0 -14 -12 -5 -12 -6 0 -6 11
-1 11 -4 0 -18 -11 -13 -11 -17 -1 -21 10 -3 10 -7 0 -20 -11 -13 -11 -14 1
-7 11 6 13 3 9 -13 -4 -12 -1 -22 4 -22 7 0 7 -4 0 -13 -8 -9 -7 -21 3 -40 10
-19 10 -25 2 -21 -7 4 -3 -3 8 -16 11 -13 14 -20 8 -16 -10 5 -11 1 -4 -16 5
-13 9 -26 10 -30 0 -5 2 -10 2 -13 1 -4 4 -25 8 -56 0 -5 7 -7 13 -3 9 5 9 3
-1 -9 -11 -14 -11 -18 2 -23 9 -3 14 -14 12 -25 -3 -12 0 -17 7 -13 7 5 9 2 5
-9 -3 -9 1 -18 10 -21 8 -4 13 -13 9 -21 -3 -8 2 -21 10 -30 9 -8 14 -21 11
-28 -2 -6 2 -16 9 -22 8 -5 15 -21 17 -35 3 -15 10 -24 19 -23 8 2 14 -6 15
-19 1 -13 7 -24 13 -26 5 -2 10 -10 10 -18 0 -8 6 -14 13 -14 8 0 13 -10 13
-22 -1 -13 8 -27 21 -33 13 -7 20 -15 16 -18 -3 -4 -1 -7 6 -7 7 0 9 -4 6 -10
-3 -5 -1 -10 5 -10 15 0 41 -26 33 -33 -3 -4 4 -5 15 -2 16 3 20 -1 17 -15 -3
-14 1 -17 12 -13 11 4 14 2 9 -5 -4 -7 -1 -12 8 -12 8 0 17 6 20 13 3 6 3 2 0
-10 -4 -16 -1 -23 9 -23 8 0 17 -7 21 -15 3 -8 9 -15 13 -14 20 3 24 -2 13
-16 -10 -12 -7 -14 17 -12 18 1 27 -2 26 -10 -2 -7 2 -14 7 -14 6 -1 16 -2 23
-3 6 -1 11 -7 10 -14 -2 -6 4 -9 12 -6 10 4 15 0 16 -12 0 -11 3 -14 5 -7 3 7
12 9 20 6 7 -3 11 -9 8 -14 -3 -5 4 -9 14 -9 11 0 22 -7 26 -15 6 -17 26 -20
26 -4 0 5 -4 7 -10 4 -5 -3 -10 -1 -10 4 0 18 17 12 33 -11 11 -18 18 -20 27
-11 9 8 21 6 49 -10 20 -12 39 -25 42 -30 4 -6 16 -7 28 -4 24 6 27 -3 9 -22
-11 -11 -9 -11 9 -2 18 9 24 8 33 -6 9 -15 10 -14 5 7 -4 16 -3 20 3 12 5 -7
16 -10 25 -6 10 3 17 1 17 -6 0 -6 -5 -8 -12 -4 -7 4 -8 3 -4 -4 5 -9 14 -7
32 4 20 14 23 14 19 2 -4 -9 0 -15 9 -15 8 0 13 4 10 9 -3 4 2 8 11 8 10 0 13
-5 9 -12 -5 -9 -2 -9 9 1 14 11 17 11 17 0 0 -11 2 -11 10 1 8 13 10 12 10 -2
0 -10 5 -18 11 -18 5 0 7 5 3 12 -5 7 -3 8 6 3 7 -4 15 -2 20 5 5 8 9 7 13 -5
5 -10 3 -14 -5 -9 -7 5 -8 3 -3 -5 5 -9 10 -10 18 -2 14 14 57 14 57 0 0 -6 7
-3 16 5 14 14 34 14 34 0 0 -3 -5 -2 -12 2 -7 4 -8 3 -4 -4 10 -17 26 -15 26
3 0 8 5 15 11 15 5 0 7 -5 4 -10 -3 -6 -1 -10 6 -10 8 0 7 -5 -2 -17 -13 -16
-12 -17 3 -4 10 7 15 17 12 22 -10 17 19 9 33 -8 8 -10 11 -12 7 -4 -8 16 13
31 33 24 11 -4 11 -8 1 -22 -11 -14 -11 -14 3 -4 9 7 20 9 24 5 5 -4 5 -1 1 6
-9 16 6 16 23 -1 10 -10 11 -9 6 4 -4 12 0 15 17 13 13 -1 27 -3 32 -3 5 -1 2
-9 -5 -18 -12 -16 -12 -17 2 -6 9 7 19 10 23 6 4 -4 4 0 0 10 -5 13 -2 16 10
11 9 -3 16 -11 16 -17 0 -6 6 -3 13 8 11 14 16 15 22 5 5 -8 4 -11 -2 -7 -5 3
-10 0 -10 -8 0 -12 3 -12 15 -3 20 17 52 20 52 5 0 -8 4 -7 10 3 7 11 12 12
21 3 9 -9 16 -9 32 0 15 9 21 9 24 -1 4 -10 9 -8 20 5 8 10 11 12 7 4 -5 -10
-1 -11 16 -6 17 5 21 4 15 -6 -6 -11 -5 -11 5 -2 7 6 20 9 29 5 14 -5 15 -4 1
14 -14 18 -14 18 2 5 10 -7 24 -11 32 -8 17 7 49 -26 39 -38 -5 -4 -2 -5 5 -1
7 4 10 11 7 16 -7 11 31 23 45 15 5 -3 10 -1 10 6 0 10 3 10 12 1 9 -9 14 -7
23 5 11 15 14 14 33 -5 14 -14 22 -17 22 -9 0 11 11 12 45 7 37 -6 45 -4 46 9
0 12 3 11 9 -4 5 -12 9 -14 9 -6 1 11 5 10 17 -5 11 -13 14 -14 11 -4 -4 12 2
16 23 14 16 -1 33 -5 39 -8 5 -4 13 -2 16 4 7 11 54 8 74 -5 6 -3 11 2 11 12
0 12 3 14 8 6 4 -7 16 -11 27 -9 11 2 30 0 42 -5 14 -5 25 -4 29 3 5 7 3 8 -6
3 -9 -5 -11 -4 -6 3 9 15 11 15 27 -5 12 -14 12 -16 0 -8 -10 5 -12 4 -7 -4
10 -15 29 -3 22 15 -3 8 -3 14 0 14 2 0 9 -10 14 -22 6 -17 9 -18 9 -6 1 14 8
16 41 12 28 -3 40 -1 40 8 0 9 3 9 12 0 16 -16 41 -16 32 1 -6 9 -4 9 7 -1 17
-16 63 -16 53 0 -5 7 -3 8 7 2 14 -9 19 -10 40 -13 8 -1 8 -5 0 -15 -9 -11 -9
-16 0 -22 7 -4 9 -3 6 3 -4 6 -1 15 6 20 17 14 58 23 51 12 -6 -11 -6 -11 34
0 20 6 30 6 27 0 -4 -5 1 -9 10 -9 10 0 14 5 10 13 -4 6 1 3 9 -7 14 -17 16
-18 16 -3 0 21 13 22 30 2 7 -8 18 -15 24 -14 7 0 6 2 -1 6 -7 2 -13 8 -13 13
0 13 56 6 74 -9 14 -12 16 -12 11 1 -8 19 38 16 62 -4 12 -9 15 -9 9 0 -4 6
-4 12 1 13 55 5 63 4 58 -11 -5 -12 -4 -13 6 -2 7 6 20 12 28 12 14 0 14 -1 1
-10 -8 -5 -10 -10 -5 -10 6 1 18 7 28 14 18 14 52 11 75 -7 9 -7 11 -6 7 5 -4
10 2 14 19 14 22 0 23 -2 14 -21 -10 -18 -9 -19 5 -7 9 8 22 10 29 6 8 -5 8
-1 -2 11 -15 19 -14 19 14 1 16 -10 25 -13 22 -7 -11 17 16 13 43 -6 14 -9 22
-12 18 -7 -10 16 8 35 27 28 12 -5 14 -10 6 -19 -8 -10 -8 -15 1 -21 7 -4 9
-3 6 3 -11 17 18 33 51 29 21 -2 29 0 25 8 -4 6 1 5 10 -3 12 -9 17 -10 17 -2
0 7 5 9 10 6 8 -5 7 -12 -2 -23 -12 -15 -11 -16 5 -3 9 7 17 10 17 5 0 -5 7 0
15 10 15 20 15 20 16 0 0 -10 3 -13 6 -6 2 6 17 12 33 12 16 0 31 -6 33 -12 3
-7 6 -2 6 12 1 20 3 22 11 10 9 -13 11 -13 20 0 5 8 10 10 10 5 0 -6 -6 -17
-12 -24 -11 -10 -10 -11 5 -6 9 4 17 12 17 19 0 6 5 4 10 -4 8 -13 10 -13 10
-1 0 11 4 10 16 -5 11 -13 14 -14 11 -3 -4 12 1 14 24 11 17 -3 27 -9 23 -16
-3 -6 1 -3 8 6 13 15 15 15 26 0 9 -13 10 -14 6 -2 -3 11 2 16 16 16 22 0 27
-12 8 -19 -7 -3 -3 -4 10 -4 12 1 21 6 18 12 -2 7 2 12 10 12 8 0 14 -4 14 -9
0 -4 5 -8 11 -8 5 0 8 4 5 8 -3 5 1 9 9 9 8 0 12 -4 10 -8 -3 -4 2 -10 11 -13
8 -3 12 -2 9 4 -3 6 1 10 10 10 10 0 14 -5 9 -12 -6 -10 -4 -11 7 0 14 13 63
17 55 4 -3 -5 1 -9 9 -9 8 0 12 4 9 9 -3 4 2 8 11 8 10 0 13 -5 9 -12 -4 -6 3
-4 16 5 18 12 27 14 37 5 9 -8 13 -7 13 1 0 7 5 9 10 6 6 -4 8 -12 4 -18 -3
-7 2 -3 10 7 16 20 16 20 16 0 0 -14 2 -16 9 -5 10 15 86 20 98 6 5 -4 2 -5
-6 0 -9 5 -12 4 -7 -3 10 -17 26 -15 26 3 0 13 4 13 28 -2 26 -17 26 -17 13 0
-12 15 -12 17 3 11 9 -3 16 -11 16 -18 0 -6 5 -4 10 4 5 8 10 10 10 4 0 -6 7
-11 15 -11 11 0 12 4 3 14 -8 11 -7 12 6 7 9 -3 16 -11 16 -17 0 -6 7 -2 15 9
11 14 14 15 9 3 -3 -10 0 -20 7 -25 7 -4 10 -3 6 2 -3 6 -2 16 4 24 7 13 9 12
9 -2 0 -11 7 -18 18 -18 14 0 15 2 2 10 -8 5 -11 10 -6 10 5 0 19 -8 30 -18
20 -16 20 -16 7 0 -12 16 -11 18 3 18 9 0 16 -4 16 -10 0 -5 5 -10 11 -10 5 0
8 4 5 8 -2 4 4 9 15 9 10 1 19 -4 19 -10 0 -7 4 -6 10 3 9 13 10 13 10 0 0
-12 2 -12 9 -1 7 11 13 11 32 0 22 -11 23 -11 10 5 -12 14 -12 16 3 10 9 -3
16 -11 16 -18 0 -6 5 -4 10 4 6 10 10 11 10 3 0 -7 5 -13 11 -13 5 0 7 6 3 13
-5 7 0 6 11 -3 11 -9 16 -10 11 -2 -4 7 -2 12 5 12 6 0 9 -8 6 -20 -3 -11 -1
-18 4 -14 5 3 9 12 9 20 0 8 5 12 10 9 6 -4 7 -12 3 -18 -5 -8 -2 -8 9 0 8 7
19 9 23 5 5 -4 5 -1 1 6 -4 6 -2 12 3 12 6 0 11 -4 11 -10 0 -5 5 -10 11 -10
6 0 9 6 6 13 -4 10 2 13 19 9 13 -2 24 -9 24 -16 0 -6 4 -5 9 3 8 12 14 13 36
3 20 -9 24 -9 19 0 -5 8 -2 9 9 5 10 -4 14 -2 11 7 -3 7 2 13 11 13 9 0 14 -6
11 -13 -3 -8 -1 -16 5 -19 5 -4 8 -1 7 7 -2 8 7 13 24 12 15 -1 25 2 23 7 -3
4 -1 10 5 14 5 3 10 -1 10 -9 0 -9 4 -16 9 -16 5 0 7 10 4 23 -4 22 -4 22 10
-2 12 -20 15 -21 20 -7 5 12 3 15 -6 10 -7 -4 -9 -3 -4 2 5 5 12 9 15 9 4 0
13 4 20 8 8 5 11 4 10 -4 -2 -6 3 -14 10 -16 8 -3 10 1 5 14 -7 17 -6 17 19 1
19 -13 29 -15 34 -6 4 6 3 8 -4 4 -16 -10 -25 12 -12 31 8 13 10 13 7 3 -3
-10 2 -16 14 -16 13 0 15 4 8 12 -8 9 -3 12 16 9 17 -1 25 2 22 10 -3 6 1 12
9 12 7 0 10 -5 7 -11 -4 -6 1 -5 10 3 9 7 23 11 31 8 8 -3 13 1 12 10 0 9 9
17 21 19 18 3 21 0 16 -14 -3 -9 -3 -14 2 -10 4 4 8 18 9 30 0 13 8 23 16 24
37 2 41 5 34 17 -5 7 -2 7 10 -2 9 -8 16 -10 15 -5 -1 5 -1 17 0 27 1 17 2 17
18 1 16 -15 17 -15 24 2 3 11 4 23 1 28 -3 5 0 6 6 2 7 -4 12 -1 12 6 0 9 3 9
10 -2 8 -13 11 -12 16 6 4 16 12 21 27 18 12 -2 16 -2 10 2 -7 3 -13 9 -13 14
0 9 19 8 36 -2 6 -4 11 -1 11 7 0 8 -5 11 -11 8 -6 -4 -5 1 3 10 7 9 21 17 30
18 10 0 11 2 4 6 -22 8 -14 21 11 19 19 -2 24 1 21 16 -3 12 0 16 7 12 7 -5 9
-2 5 9 -4 12 -1 15 14 12 18 -4 19 -2 8 13 -7 9 -9 14 -4 9 4 -4 16 4 25 19
10 14 21 25 26 24 5 0 10 8 12 20 2 11 8 18 13 15 5 -4 9 3 9 15 0 12 4 19 9
15 6 -3 8 3 6 15 -2 11 1 23 7 26 7 5 8 2 3 -6 -5 -9 -4 -11 3 -6 7 4 12 16
12 26 0 11 8 24 18 29 13 7 18 20 17 41 -1 22 2 29 12 26 7 -3 13 -1 13 3 0 5
-6 12 -12 14 -10 4 -10 6 0 6 7 1 11 5 8 10 -3 4 3 19 14 31 14 17 17 27 9 36
-7 9 -6 14 2 20 8 5 9 3 4 -6 -6 -9 -4 -11 4 -5 7 4 11 16 8 26 -3 11 -1 19 4
19 5 0 9 5 9 11 0 5 -6 7 -12 4 -7 -4 -4 1 6 9 11 9 16 16 10 16 -5 0 -2 5 6
10 13 9 13 10 0 10 -13 0 -13 1 0 10 9 6 11 10 3 10 -14 0 -6 31 11 42 7 5 7
8 -2 8 -7 0 -10 5 -7 10 4 6 12 7 18 4 8 -5 8 -3 0 7 -7 7 -13 17 -13 22 0 4
6 5 13 1 8 -5 8 -2 -2 9 -8 11 -9 17 -3 17 7 0 9 7 5 17 -5 12 -3 14 8 8 11
-6 12 -5 2 6 -7 7 -13 19 -13 27 0 8 5 10 13 6 9 -6 9 -5 0 7 -10 12 -10 18 0
29 9 10 9 11 0 6 -16 -9 -17 10 -3 19 8 5 7 11 -1 21 -11 13 -6 18 14 15 5 -1
6 3 2 9 -3 6 -10 8 -15 5 -4 -3 -7 3 -5 12 2 10 4 18 5 18 1 0 3 8 5 18 3 14
-1 17 -13 12 -13 -5 -13 -3 2 14 11 12 15 25 10 33 -4 7 -8 25 -9 41 -1 21 2
27 14 22 11 -3 9 0 -3 10 -11 8 -14 15 -8 15 7 0 12 5 12 11 0 5 -6 7 -12 3
-7 -4 -4 3 7 16 11 13 14 20 8 16 -7 -4 -13 -2 -13 4 0 6 -6 8 -12 5 -7 -4 -4
1 6 9 15 12 16 16 5 16 -12 0 -12 2 1 10 13 9 13 10 0 10 -12 0 -12 2 -2 9 16
9 15 20 -1 40 -9 12 -9 13 1 7 6 -4 12 -2 12 3 0 6 -5 11 -11 11 -5 0 -7 5 -3
12 13 21 13 58 1 58 -7 0 -6 4 3 10 13 8 13 10 1 10 -11 0 -9 4 5 15 13 11 14
13 3 9 -13 -4 -16 1 -14 20 2 14 6 30 10 37 4 6 1 15 -6 20 -12 7 -12 9 0 9
11 0 11 3 0 17 -10 11 -10 14 -1 9 6 -4 12 -2 12 3 0 6 -5 11 -11 11 -8 0 -8
5 1 15 10 12 10 15 -1 15 -12 0 -12 2 0 9 11 7 11 9 0 14 -12 5 -12 6 0 6 11
1 11 4 0 18 -10 11 -10 14 -1 9 6 -4 12 -2 12 3 0 6 -6 11 -12 11 -9 0 -8 4 2
10 8 5 10 10 4 10 -6 0 -11 7 -11 15 0 8 4 12 9 9 6 -4 5 35 -3 44 -6 7 -4 29
4 40 6 8 5 12 -4 12 -11 0 -11 2 1 10 13 9 13 10 0 10 -13 0 -13 1 0 10 13 9
13 10 0 10 -13 0 -13 1 0 10 13 9 13 10 0 10 -13 0 -13 1 0 10 13 9 13 10 0
10 -9 0 -11 3 -5 8 17 12 16 32 -3 32 -15 1 -15 2 2 11 15 9 16 13 5 20 -12 7
-11 9 1 9 13 0 13 1 0 10 -11 7 -11 10 -2 10 8 0 10 5 5 13 -11 18 -13 38 -2
31 5 -3 9 0 9 5 0 6 -5 11 -11 11 -5 0 -7 6 -3 12 12 20 12 52 0 60 -7 5 -6 8
4 8 13 0 13 1 0 10 -13 9 -13 10 0 10 13 0 13 1 0 10 -11 7 -11 10 -2 10 8 0
10 5 5 13 -11 18 -13 38 -2 31 5 -3 9 -1 9 5 0 5 -4 12 -8 15 -7 4 -9 51 -2
51 1 0 3 10 6 23 3 16 0 21 -8 16 -10 -6 -11 -4 0 7 16 17 16 32 0 23 -10 -6
-10 -4 0 7 6 7 12 17 12 22 0 4 -6 5 -12 1 -10 -6 -10 -4 0 7 14 15 17 33 4
25 -5 -3 -9 1 -9 9 0 8 4 12 9 9 13 -8 10 10 -4 25 -10 11 -10 13 0 7 6 -4 12
-3 12 1 0 5 -6 15 -12 22 -10 11 -10 13 0 7 6 -4 12 -3 12 1 0 5 -6 15 -12 22
-10 11 -10 13 0 7 6 -4 12 -3 12 1 0 5 -6 15 -12 22 -10 11 -10 13 0 7 6 -4
12 -3 12 1 0 5 -6 15 -12 22 -8 8 -8 11 -2 8 7 -4 12 3 12 18 0 15 -5 22 -12
18 -6 -3 -6 0 2 8 6 7 12 17 12 22 0 4 -6 5 -12 1 -9 -5 -9 -2 1 9 11 14 11
17 0 17 -8 0 -6 6 7 16 10 8 14 13 7 10 -6 -4 -14 -2 -18 4 -3 5 2 10 11 10
16 0 16 1 -2 15 -12 9 -14 14 -6 15 8 0 10 5 5 13 -11 18 -13 38 -2 31 5 -3 9
0 9 5 0 6 -6 11 -12 11 -10 0 -9 3 1 9 8 6 10 14 5 22 -12 20 -14 40 -3 33 13
-8 11 10 -3 24 -9 9 -9 12 0 12 7 0 12 5 12 11 0 5 -4 8 -8 5 -5 -3 -9 1 -9 9
0 8 4 12 8 10 9 -6 6 16 -4 33 -8 11 -2 16 16 13 5 -1 6 3 2 9 -3 6 -12 7 -18
3 -7 -4 -5 2 3 12 14 17 13 18 -4 11 -20 -7 -20 -7 0 15 11 14 13 19 4 14 -13
-8 -13 -7 -1 8 11 14 11 17 0 17 -12 0 -12 2 0 9 11 7 11 9 0 14 -9 4 -10 8
-4 14 12 10 15 64 3 57 -13 -8 -9 11 5 25 10 11 10 13 0 7 -16 -9 -17 6 -2 21
8 8 8 13 0 17 -15 10 -14 29 2 20 10 -6 10 -4 0 7 -15 15 -18 33 -5 25 5 -3 9
1 9 9 0 8 -5 15 -10 15 -5 0 -5 6 2 13 8 10 7 17 -1 25 -9 9 -9 12 3 12 10 1
9 5 -5 15 -20 15 -20 15 0 16 11 0 14 3 6 6 -10 4 -10 8 0 21 10 12 10 14 1 8
-7 -4 -13 -3 -13 1 0 5 6 15 13 22 8 10 8 12 0 7 -8 -4 -11 1 -10 14 1 11 4
20 7 20 9 0 6 32 -4 49 -5 8 -3 17 5 22 13 8 5 13 -16 9 -5 -1 -1 9 10 21 11
12 14 19 7 15 -16 -10 -13 25 3 36 6 5 6 8 -1 8 -6 0 -11 11 -11 25 0 14 5 25
11 25 8 0 8 2 0 8 -13 9 -15 82 -2 99 6 7 4 14 -3 19 -8 5 -9 3 -4 -6 5 -9 4
-11 -3 -6 -7 4 -9 14 -4 24 4 9 7 31 6 47 -1 17 4 36 10 44 9 12 7 13 -9 7
-16 -6 -18 -5 -7 5 6 7 12 17 12 22 0 4 -6 5 -12 1 -7 -4 -5 2 5 13 14 16 15
23 6 29 -8 5 -10 3 -4 -6 5 -9 4 -11 -4 -6 -9 6 -8 14 4 33 10 14 12 23 7 19
-7 -4 -10 5 -10 24 1 16 6 30 12 30 8 0 8 3 1 8 -16 10 -17 54 -2 45 7 -3 5 2
-4 13 -11 12 -14 26 -9 39 4 11 3 26 -2 33 -6 6 -7 12 -2 12 12 0 11 153 -1
162 -7 5 -7 8 0 8 6 0 10 11 10 25 0 14 -4 25 -10 25 -7 0 -7 3 0 8 6 4 10 16
10 27 0 11 -4 23 -10 27 -6 5 -5 8 3 8 10 0 10 5 2 20 -8 14 -8 20 0 20 6 0 9
4 5 9 -3 5 -6 35 -7 65 -1 31 -6 56 -11 56 -5 0 -3 8 4 17 10 11 10 14 2 9
-10 -5 -13 5 -15 41 -2 74 -2 76 -14 80 -7 2 -10 12 -7 22 3 10 0 22 -6 25 -6
4 -11 21 -11 37 0 16 -6 32 -14 35 -8 3 -12 13 -9 25 3 12 0 19 -8 19 -12 0
-12 2 -1 9 11 7 10 9 -3 15 -9 3 -13 11 -9 17 3 6 1 15 -5 19 -7 4 -13 17 -14
28 -1 12 -5 22 -9 22 -4 0 -8 7 -8 15 0 8 -5 15 -11 15 -5 0 -7 5 -4 10 3 6 2
10 -4 10 -6 0 -7 7 -4 17 4 9 2 14 -3 10 -6 -3 -16 3 -23 15 -10 16 -10 19 1
12 10 -6 10 -4 -1 9 -7 9 -17 14 -22 11 -5 -3 -9 -2 -8 3 4 21 -2 34 -13 27
-6 -4 -8 -3 -4 4 3 6 -5 22 -18 35 -14 14 -22 28 -19 31 4 3 -2 6 -13 6 -15 0
-16 2 -5 9 11 7 9 10 -8 16 -11 3 -21 13 -21 21 0 8 -7 14 -15 14 -8 0 -15 5
-15 11 0 5 -4 7 -10 4 -6 -4 -7 1 -3 11 4 12 3 15 -5 10 -7 -4 -12 -2 -12 4 0
6 -4 9 -9 6 -5 -3 -11 3 -14 14 -3 11 -12 20 -21 20 -9 0 -16 5 -16 11 0 5 -4
7 -10 4 -6 -3 -7 1 -4 9 4 12 0 16 -16 16 -11 0 -19 3 -17 8 3 4 -17 18 -43
31 -27 14 -47 28 -44 33 3 4 -3 8 -14 8 -10 0 -28 9 -40 20 -23 22 -37 27 -27
9 4 -6 -2 -5 -14 3 -12 7 -21 16 -21 20 0 5 -12 8 -26 8 -14 0 -23 4 -20 9 5
8 -14 14 -91 28 -18 3 -33 9 -33 13 0 12 -50 19 -56 8 -3 -5 -13 -3 -23 6 -11
10 -21 12 -31 6 -8 -5 -19 -5 -25 -1 -18 15 -54 19 -59 7 -3 -7 -5 -7 -5 2 -1
7 -5 11 -10 8 -5 -4 -20 -2 -33 3 -13 4 -33 5 -45 0 -15 -5 -23 -5 -23 2 0 6
-5 7 -10 4 -6 -4 -7 -12 -3 -18 4 -7 0 -6 -10 2 -9 7 -17 10 -17 6 0 -4 -6 -2
-14 4 -9 8 -16 8 -20 2 -4 -5 -31 -8 -61 -7 -30 2 -55 -2 -55 -7 0 -6 -5 -6
-12 -1 -7 5 -34 9 -60 8 -27 0 -48 4 -48 10 0 5 -7 1 -16 -10 -8 -10 -13 -14
-10 -8 3 7 -1 15 -10 18 -8 3 -12 2 -9 -4 4 -6 -7 -10 -24 -10 -16 0 -33 5
-36 11 -5 7 -13 5 -24 -5 -10 -9 -20 -13 -24 -10 -3 3 -78 6 -166 7 -109 0
-161 4 -161 11 0 6 -4 5 -9 -3 -7 -10 -13 -11 -31 -1 -20 11 -22 10 -17 -4 5
-12 3 -15 -5 -10 -7 4 -24 8 -38 9 -14 1 -32 5 -39 10 -9 5 -12 4 -7 -3 4 -7
-7 -11 -35 -10 -27 0 -37 3 -28 9 8 5 9 9 3 9 -6 0 -14 -3 -18 -7 -11 -12 -48
-14 -61 -3 -6 5 -15 6 -19 2 -12 -11 -176 -9 -176 3 0 5 -4 4 -9 -4 -8 -13
-12 -13 -27 0 -11 9 -15 9 -10 2 9 -16 -45 -18 -60 -3 -8 8 -15 6 -24 -5 -12
-14 -15 -14 -33 2 -12 10 -17 12 -12 4z m-2690 -5911 c3 -5 1 -10 -4 -10 -6 0
-11 5 -11 10 0 6 2 10 4 10 3 0 8 -4 11 -10z m4285 -92 c0 -4 -4 -8 -9 -8 -6
0 -12 4 -15 8 -3 5 1 9 9 9 8 0 15 -4 15 -9z m-3140 -2 c0 -3 -4 -8 -10 -11
-5 -3 -10 -1 -10 4 0 6 5 11 10 11 6 0 10 -2 10 -4z"/>
<path d="M6050 779 c0 -5 5 -7 10 -4 6 3 10 8 10 11 0 2 -4 4 -10 4 -5 0 -10
-5 -10 -11z"/>
<path d="M5976 713 c-6 -14 -5 -15 5 -6 7 7 10 15 7 18 -3 3 -9 -2 -12 -12z"/>
<path d="M5915 600 c3 -5 8 -10 11 -10 2 0 4 5 4 10 0 6 -5 10 -11 10 -5 0 -7
-4 -4 -10z"/>
<path d="M5793 525 c0 -8 4 -12 9 -9 5 3 6 10 3 15 -9 13 -12 11 -12 -6z"/>
<path d="M2179 488 c-5 -18 -6 -38 -1 -34 7 8 12 36 6 36 -2 0 -4 -1 -5 -2z"/>
<path d="M2596 478 c3 -5 10 -6 15 -3 13 9 11 12 -6 12 -8 0 -12 -4 -9 -9z"/>
<path d="M2910 479 c0 -5 5 -7 10 -4 6 3 10 8 10 11 0 2 -4 4 -10 4 -5 0 -10
-5 -10 -11z"/>
<path d="M3019 488 c-5 -18 -6 -38 -1 -34 7 8 12 36 6 36 -2 0 -4 -1 -5 -2z"/>
<path d="M3380 486 c0 -2 8 -10 18 -17 15 -13 16 -12 3 4 -13 16 -21 21 -21
13z"/>
<path d="M3556 482 c-3 -5 1 -9 9 -9 8 0 12 4 9 9 -3 4 -7 8 -9 8 -2 0 -6 -4
-9 -8z"/>
<path d="M4635 480 c-3 -5 -1 -10 4 -10 6 0 11 5 11 10 0 6 -2 10 -4 10 -3 0
-8 -4 -11 -10z"/>
<path d="M2570 466 c0 -2 7 -7 16 -10 8 -3 12 -2 9 4 -6 10 -25 14 -25 6z"/>
<path d="M3100 466 c0 -2 8 -10 18 -17 15 -13 16 -12 3 4 -13 16 -21 21 -21
13z"/>
<path d="M4134 456 c1 -8 5 -18 8 -22 4 -3 5 1 4 10 -1 8 -5 18 -8 22 -4 3 -5
-1 -4 -10z"/>
<path d="M4995 460 c-3 -5 -1 -10 4 -10 6 0 11 5 11 10 0 6 -2 10 -4 10 -3 0
-8 -4 -11 -10z"/>
<path d="M5060 460 c-12 -7 -10 -9 7 -7 12 0 19 5 17 9 -6 10 -6 10 -24 -2z"/>
<path d="M5474 462 c4 -3 14 -7 22 -8 9 -1 13 0 10 4 -4 3 -14 7 -22 8 -9 1
-13 0 -10 -4z"/>
<path d="M5535 460 c-3 -5 -1 -10 4 -10 6 0 11 5 11 10 0 6 -2 10 -4 10 -3 0
-8 -4 -11 -10z"/>
<path d="M3304 438 l-19 -23 23 19 c12 11 22 21 22 23 0 8 -8 2 -26 -19z"/>
<path d="M2015 440 c-3 -5 -1 -10 4 -10 6 0 11 5 11 10 0 6 -2 10 -4 10 -3 0
-8 -4 -11 -10z"/>
<path d="M2425 439 c-3 -4 2 -6 10 -5 21 3 28 13 10 13 -9 0 -18 -4 -20 -8z"/>
<path d="M2910 446 c0 -2 7 -7 16 -10 8 -3 12 -2 9 4 -6 10 -25 14 -25 6z"/>
<path d="M4199 440 c-3 -20 -4 -25 -13 -40 -7 -12 -6 -13 4 -3 13 12 25 53 15
53 -3 0 -6 -4 -6 -10z"/>
<path d="M4296 433 c-6 -14 -5 -15 5 -6 7 7 10 15 7 18 -3 3 -9 -2 -12 -12z"/>
<path d="M4833 430 c-1 -11 2 -20 7 -20 4 0 7 7 6 15 -3 23 -12 26 -13 5z"/>
<path d="M5096 433 c-6 -14 -5 -15 5 -6 7 7 10 15 7 18 -3 3 -9 -2 -12 -12z"/>
<path d="M5620 446 c0 -2 8 -10 18 -17 15 -13 16 -12 3 4 -13 16 -21 21 -21
13z"/>
<path d="M1730 420 c0 -5 5 -10 11 -10 5 0 7 5 4 10 -3 6 -8 10 -11 10 -2 0
-4 -4 -4 -10z"/>
<path d="M1970 420 c0 -5 5 -10 11 -10 5 0 7 5 4 10 -3 6 -8 10 -11 10 -2 0
-4 -4 -4 -10z"/>
<path d="M2099 428 c0 -2 -2 -12 -3 -24 -2 -16 2 -20 16 -16 20 5 25 23 6 20
-7 -2 -12 3 -10 10 2 10 -6 18 -9 10z"/>
<path d="M2385 420 c-3 -6 1 -7 9 -4 18 7 21 14 7 14 -6 0 -13 -4 -16 -10z"/>
<path d="M2586 422 c-2 -4 4 -8 14 -8 10 0 16 4 14 8 -3 4 -9 8 -14 8 -5 0
-11 -4 -14 -8z"/>
<path d="M2881 421 c-8 -5 -9 -11 -3 -15 5 -3 12 1 16 9 6 17 6 18 -13 6z"/>
<path d="M3124 416 c-3 -8 -12 -12 -20 -9 -8 3 -14 3 -14 0 0 -16 31 -13 40 3
6 11 8 20 5 20 -3 0 -8 -6 -11 -14z"/>
<path d="M3356 421 c-17 -6 -17 -8 -4 -14 10 -3 19 0 22 9 3 8 4 14 3 13 -1 0
-11 -4 -21 -8z"/>
<path d="M3403 422 c-14 -9 -13 -52 0 -52 5 0 6 7 3 16 -4 9 -1 23 5 30 13 16
10 18 -8 6z"/>
<path d="M3465 420 c-3 -6 1 -7 9 -4 18 7 21 14 7 14 -6 0 -13 -4 -16 -10z"/>
<path d="M3510 420 c0 -5 5 -10 11 -10 5 0 7 5 4 10 -3 6 -8 10 -11 10 -2 0
-4 -4 -4 -10z"/>
<path d="M3628 415 c4 -5 7 -16 8 -23 2 -8 6 -17 10 -20 4 -4 4 0 2 8 -3 8 -2
22 3 30 5 11 2 16 -11 16 -10 0 -16 -5 -12 -11z"/>
<path d="M3675 419 c-4 -6 -5 -12 -2 -15 2 -3 7 2 10 11 7 17 1 20 -8 4z"/>
<path d="M3771 413 c-9 -16 -12 -16 -22 -3 -9 12 -10 12 -7 1 7 -23 26 -24 38
-2 13 25 5 28 -9 4z"/>
<path d="M3830 426 c0 -2 7 -7 16 -10 8 -3 12 -2 9 4 -6 10 -25 14 -25 6z"/>
<path d="M3904 418 c9 -5 23 -5 32 0 12 6 7 9 -16 9 -23 0 -28 -3 -16 -9z"/>
<path d="M4064 418 c9 -5 23 -5 32 0 12 6 7 9 -16 9 -23 0 -28 -3 -16 -9z"/>
<path d="M4353 405 c0 -30 6 -28 12 4 2 11 0 21 -4 21 -5 0 -8 -11 -8 -25z"/>
<path d="M4433 404 c0 -17 2 -22 7 -13 5 6 6 18 3 26 -8 19 -10 16 -10 -13z"/>
<path d="M4455 420 c3 -5 8 -10 11 -10 2 0 4 5 4 10 0 6 -5 10 -11 10 -5 0 -7
-4 -4 -10z"/>
<path d="M4714 411 c15 -10 26 -22 24 -27 -2 -5 6 -9 17 -10 16 -1 16 0 2 3
-9 3 -15 9 -12 14 4 5 -1 12 -9 15 -9 3 -14 9 -12 13 3 4 -5 8 -17 8 -19 2
-18 0 7 -16z"/>
<path d="M4750 423 c0 -6 8 -17 18 -24 16 -13 16 -13 2 6 -8 11 -16 22 -17 24
-2 2 -3 0 -3 -6z"/>
<path d="M4775 420 c3 -5 8 -10 11 -10 2 0 4 5 4 10 0 6 -5 10 -11 10 -5 0 -7
-4 -4 -10z"/>
<path d="M4890 419 c0 -5 5 -7 10 -4 6 3 10 8 10 11 0 2 -4 4 -10 4 -5 0 -10
-5 -10 -11z"/>
<path d="M4970 419 c0 -5 5 -7 10 -4 6 3 10 8 10 11 0 2 -4 4 -10 4 -5 0 -10
-5 -10 -11z"/>
<path d="M5175 420 c3 -5 8 -10 11 -10 2 0 4 5 4 10 0 6 -5 10 -11 10 -5 0 -7
-4 -4 -10z"/>
<path d="M5264 418 c9 -5 23 -5 32 0 12 6 7 9 -16 9 -23 0 -28 -3 -16 -9z"/>
<path d="M1555 409 c-4 -6 -5 -12 -2 -15 2 -3 7 2 10 11 7 17 1 20 -8 4z"/>
<path d="M2911 404 c0 -11 3 -14 6 -6 3 7 2 16 -1 19 -3 4 -6 -2 -5 -13z"/>
<path d="M2933 399 c-2 -23 3 -25 10 -4 4 8 3 16 -1 19 -4 3 -9 -4 -9 -15z"/>
<path d="M2988 413 c7 -3 16 -2 19 1 4 3 -2 6 -13 5 -11 0 -14 -3 -6 -6z"/>
<path d="M3151 410 c0 -8 4 -22 9 -30 12 -18 12 -2 0 25 -6 13 -9 15 -9 5z"/>
<path d="M3427 406 c-4 -10 -1 -13 8 -9 8 3 12 9 9 14 -7 12 -11 11 -17 -5z"/>
<path d="M3550 410 c-8 -5 -12 -11 -10 -14 3 -2 14 2 24 10 22 15 10 19 -14 4z"/>
<path d="M3586 404 c-11 -8 -16 -14 -10 -14 13 0 39 18 34 24 -3 2 -14 -2 -24
-10z"/>
<path d="M3946 405 c-11 -8 -15 -15 -9 -15 6 0 16 7 23 15 16 19 11 19 -14 0z"/>
<path d="M4145 405 c11 -9 19 -19 17 -23 -2 -3 1 -7 8 -9 6 -1 7 0 0 4 -5 2
-8 9 -5 13 3 5 -5 14 -17 20 -22 11 -22 11 -3 -5z"/>
<path d="M4266 401 c4 -17 3 -21 -6 -16 -9 6 -11 4 -5 -4 5 -9 11 -9 17 -3 7
7 6 16 -1 29 -11 16 -11 15 -5 -6z"/>
<path d="M4499 408 c-1 -7 -1 -16 0 -20 2 -13 -17 -9 -22 5 -4 9 -6 9 -6 -1
-1 -7 -6 -10 -13 -6 -6 4 -8 3 -5 -3 12 -20 50 -9 53 15 2 12 2 22 -1 22 -3 0
-6 -6 -6 -12z"/>
<path d="M4610 405 c0 -8 4 -15 10 -15 5 0 7 7 4 15 -4 8 -8 15 -10 15 -2 0
-4 -7 -4 -15z"/>
<path d="M4639 408 c7 -10 17 -18 22 -18 5 0 9 8 8 18 0 11 -2 12 -6 4 -4 -10
-8 -10 -21 0 -15 12 -16 11 -3 -4z"/>
<path d="M4935 399 c3 -13 0 -19 -8 -16 -7 3 -11 10 -9 16 1 7 -2 10 -8 6 -17
-11 9 -35 33 -31 28 4 33 22 8 35 -17 10 -19 8 -16 -10z m25 -9 c0 -5 -2 -10
-4 -10 -3 0 -8 5 -11 10 -3 6 -1 10 4 10 6 0 11 -4 11 -10z"/>
<path d="M5013 400 c3 -18 10 -25 27 -25 17 0 24 7 27 25 2 18 1 21 -6 10 -5
-8 -7 -18 -5 -22 3 -4 -4 -8 -16 -8 -12 0 -19 4 -16 8 2 4 0 14 -5 22 -7 11
-8 8 -6 -10z"/>
<path d="M5125 405 c11 -9 19 -19 18 -23 -2 -4 3 -7 9 -7 7 0 14 8 16 19 3 12
-1 17 -10 14 -7 -3 -22 -1 -33 4 l-20 9 20 -16z m35 -15 c0 -5 -5 -10 -11 -10
-5 0 -7 5 -4 10 3 6 8 10 11 10 2 0 4 -4 4 -10z"/>
<path d="M1440 406 c0 -2 8 -10 18 -17 15 -13 16 -12 3 4 -13 16 -21 21 -21
13z"/>
<path d="M1615 402 c8 -9 55 -11 55 -3 0 4 -13 7 -30 7 -16 0 -28 -2 -25 -4z"/>
<path d="M1692 401 c-11 -7 -11 -9 0 -14 9 -3 15 1 15 9 0 8 -1 14 -1 14 -1 0
-7 -4 -14 -9z"/>
<path d="M1790 400 c0 -4 7 -7 15 -6 23 3 26 12 5 13 -11 1 -20 -2 -20 -7z"/>
<path d="M1853 393 c0 -8 6 -9 19 -2 10 5 18 11 18 12 0 2 -8 3 -18 3 -10 0
-19 -6 -19 -13z"/>
<path d="M2193 397 c-3 -6 -1 -7 5 -3 5 3 12 1 14 -6 3 -8 6 -7 10 3 7 17 -19
22 -29 6z"/>
<path d="M2260 400 c-12 -7 -10 -9 7 -7 12 0 19 5 17 9 -6 10 -6 10 -24 -2z"/>
<path d="M2475 400 c3 -5 8 -10 11 -10 2 0 4 5 4 10 0 6 -5 10 -11 10 -5 0 -7
-4 -4 -10z"/>
<path d="M2546 399 c3 -5 9 -7 14 -4 4 3 11 0 13 -5 3 -6 4 -5 3 1 -1 7 -10
13 -19 15 -9 1 -15 -2 -11 -7z"/>
<path d="M2664 398 c9 -5 23 -5 32 0 12 6 7 9 -16 9 -23 0 -28 -3 -16 -9z"/>
<path d="M2760 400 c-13 -8 -12 -10 3 -10 9 0 17 5 17 10 0 12 -1 12 -20 0z"/>
<path d="M2817 396 c-4 -10 1 -12 14 -9 23 6 24 9 5 16 -8 3 -17 0 -19 -7z"/>
<path d="M2956 395 c-9 -26 -7 -32 5 -12 6 10 9 21 6 23 -2 3 -7 -2 -11 -11z"/>
<path d="M3021 394 c0 -11 3 -14 6 -6 3 7 2 16 -1 19 -3 4 -6 -2 -5 -13z"/>
<path d="M3060 400 c0 -5 5 -10 11 -10 5 0 7 5 4 10 -3 6 -8 10 -11 10 -2 0
-4 -4 -4 -10z"/>
<path d="M3210 400 c0 -5 5 -10 10 -10 6 0 10 5 10 10 0 6 -4 10 -10 10 -5 0
-10 -4 -10 -10z"/>
<path d="M3291 394 c0 -11 3 -14 6 -6 3 7 2 16 -1 19 -3 4 -6 -2 -5 -13z"/>
<path d="M3476 394 c-11 -8 -16 -14 -10 -14 13 0 39 18 34 24 -3 2 -14 -2 -24
-10z"/>
<path d="M3690 398 c0 -11 12 -10 30 2 12 7 10 9 -8 7 -12 0 -22 -5 -22 -9z"/>
<path d="M3800 400 c18 -12 30 -13 30 -2 0 4 -10 9 -22 9 -18 2 -20 0 -8 -7z"/>
<path d="M3867 403 c-3 -5 6 -9 20 -10 19 -1 22 1 12 8 -17 11 -26 11 -32 2z"/>
<path d="M3990 390 c-6 -11 -8 -20 -6 -20 3 0 10 9 16 20 6 11 8 20 6 20 -3 0
-10 -9 -16 -20z"/>
<path d="M4044 399 c-3 -6 -2 -15 4 -21 6 -6 12 -6 17 3 6 8 4 10 -5 4 -10 -6
-12 -4 -7 8 7 19 2 23 -9 6z"/>
<path d="M4095 399 c-6 -8 -4 -10 5 -4 10 6 12 4 6 -11 -6 -15 -5 -17 5 -6 9
9 10 15 2 23 -8 8 -13 7 -18 -2z"/>
<path d="M4230 390 c-6 -11 -8 -20 -6 -20 3 0 10 9 16 20 6 11 8 20 6 20 -3 0
-10 -9 -16 -20z"/>
<path d="M4294 393 c2 -9 8 -18 15 -19 6 -1 7 0 1 3 -5 2 -8 9 -5 13 3 5 1 11
-4 14 -5 4 -8 -2 -7 -11z"/>
<path d="M4325 401 c-3 -5 -2 -12 3 -15 5 -3 9 1 9 9 0 17 -3 19 -12 6z"/>
<path d="M4397 395 c-8 -8 -18 -11 -22 -7 -5 4 -5 2 -1 -5 8 -15 32 -7 40 13
7 18 1 18 -17 -1z"/>
<path d="M4521 394 c0 -11 3 -14 6 -6 3 7 2 16 -1 19 -3 4 -6 -2 -5 -13z"/>
<path d="M4555 400 c-4 -6 -4 -14 -1 -17 3 -4 6 -1 6 5 0 7 5 12 10 12 6 0 9
-6 8 -12 -2 -7 8 -14 22 -15 24 -2 24 -2 2 5 -13 4 -23 11 -22 17 2 14 -17 18
-25 5z"/>
<path d="M4687 399 c7 -7 15 -10 18 -7 3 3 -2 9 -12 12 -14 6 -15 5 -6 -5z"/>
<path d="M4799 408 c-6 -12 -3 -66 3 -62 5 3 6 9 3 14 -3 4 1 11 7 13 10 4 10
6 1 6 -7 1 -13 6 -13 12 0 5 5 7 10 4 6 -3 10 -1 10 4 0 9 -17 16 -21 9z"/>
<path d="M4857 395 c-8 -18 11 -31 25 -17 11 11 3 32 -12 32 -4 0 -10 -7 -13
-15z m23 -5 c0 -5 -5 -10 -11 -10 -5 0 -7 5 -4 10 3 6 8 10 11 10 2 0 4 -4 4
-10z"/>
<path d="M4991 394 c0 -11 3 -14 6 -6 3 7 2 16 -1 19 -3 4 -6 -2 -5 -13z"/>
<path d="M5086 401 c-4 -5 -2 -12 4 -16 6 -4 8 -11 4 -16 -3 -5 -10 -6 -16 -3
-7 4 -8 2 -4 -4 4 -7 2 -12 -5 -12 -7 0 -9 -3 -6 -7 4 -3 16 2 26 11 11 10 26
15 33 11 7 -3 6 -1 -3 7 -9 7 -16 17 -17 21 -1 15 -10 19 -16 8z"/>
<path d="M5195 400 c-4 -6 -4 -14 -1 -17 3 -4 6 -1 6 5 0 7 5 12 10 12 6 0 9
-6 8 -12 -2 -7 8 -14 22 -15 24 -2 24 -2 2 5 -13 4 -23 11 -22 17 2 14 -17 18
-25 5z"/>
<path d="M5250 400 c0 -5 5 -10 11 -10 5 0 7 5 4 10 -3 6 -8 10 -11 10 -2 0
-4 -4 -4 -10z"/>
<path d="M5294 398 c-5 -7 -3 -8 6 -3 10 6 12 4 7 -8 -4 -11 -2 -14 9 -10 11
4 12 9 3 19 -14 17 -16 17 -25 2z"/>
<path d="M5379 393 c-13 -16 -12 -17 4 -4 9 7 17 15 17 17 0 8 -8 3 -21 -13z"/>
<path d="M5433 393 c0 -9 4 -10 14 -2 7 6 13 12 13 14 0 1 -6 2 -13 2 -8 0
-14 -6 -14 -14z"/>
<path d="M2595 389 c-4 -6 -5 -12 -2 -15 2 -3 7 2 10 11 7 17 1 20 -8 4z"/>
<path d="M3315 389 c-4 -6 -5 -12 -2 -15 2 -3 7 2 10 11 7 17 1 20 -8 4z"/>
<path d="M1400 380 c-9 -6 -10 -10 -3 -10 6 0 15 5 18 10 8 12 4 12 -15 0z"/>
<path d="M1590 381 c0 -6 4 -12 8 -15 5 -3 9 1 9 9 0 8 -4 15 -9 15 -4 0 -8
-4 -8 -9z"/>
<path d="M1750 385 c5 -22 -1 -29 -11 -15 -8 12 -10 12 -7 1 5 -18 37 -23 34
-5 -1 7 -6 17 -10 21 -4 4 -7 4 -6 -2z"/>
<path d="M1879 373 c-13 -16 -12 -17 4 -4 16 13 21 21 13 21 -2 0 -10 -8 -17
-17z"/>
<path d="M2028 383 c7 -3 16 -2 19 1 4 3 -2 6 -13 5 -11 0 -14 -3 -6 -6z"/>
<path d="M2134 379 c-4 -7 -3 -9 4 -5 6 3 13 -2 15 -11 4 -16 5 -16 6 -1 1 21
-15 32 -25 17z"/>
<path d="M2357 377 c4 -7 -1 -8 -12 -3 -18 7 -18 6 0 -14 19 -21 30 -27 20
-10 -4 6 -2 17 4 24 8 9 7 13 -4 13 -8 0 -11 -5 -8 -10z"/>
<path d="M2430 380 c0 -5 5 -10 10 -10 6 0 10 5 10 10 0 6 -4 10 -10 10 -5 0
-10 -4 -10 -10z"/>
<path d="M2653 369 c-2 -23 3 -25 10 -4 4 8 3 16 -1 19 -4 3 -9 -4 -9 -15z"/>
<path d="M2713 375 c0 -8 4 -12 9 -9 5 3 6 10 3 15 -9 13 -12 11 -12 -6z"/>
<path d="M2980 386 c0 -2 7 -6 15 -10 8 -3 15 -1 15 4 0 6 -7 10 -15 10 -8 0
-15 -2 -15 -4z"/>
<path d="M3037 375 c-4 -8 -3 -16 1 -19 4 -3 9 4 9 15 2 23 -3 25 -10 4z"/>
<path d="M3080 371 c-7 -14 -7 -22 0 -26 6 -4 10 -3 9 2 -4 21 2 34 13 27 7
-4 8 -3 4 4 -10 16 -14 15 -26 -7z"/>
<path d="M3134 382 c3 -5 0 -13 -6 -15 -9 -4 -10 -6 -1 -6 17 -1 25 16 12 25
-7 4 -9 3 -5 -4z"/>
<path d="M3255 381 c6 -10 4 -13 -7 -9 -15 6 -19 -25 -4 -39 4 -5 6 -1 4 7 -1
8 2 14 9 13 13 -3 12 22 -2 34 -4 5 -5 2 0 -6z"/>
<path d="M3335 380 c-3 -6 1 -7 9 -4 18 7 21 14 7 14 -6 0 -13 -4 -16 -10z"/>
<path d="M3510 380 c0 -5 5 -10 10 -10 6 0 10 5 10 10 0 6 -4 10 -10 10 -5 0
-10 -4 -10 -10z"/>
<path d="M3614 383 c4 -7 3 -13 -2 -13 -14 0 -23 -28 -11 -35 5 -4 8 -1 7 7
-2 7 2 12 9 11 13 -3 12 22 -2 34 -4 4 -5 2 -1 -4z"/>
<path d="M3735 380 c6 -9 4 -12 -7 -8 -8 4 -15 0 -15 -7 0 -8 5 -13 11 -12 6
1 10 -5 8 -13 -2 -8 0 -12 4 -7 12 11 12 47 1 54 -6 4 -7 1 -2 -7z"/>
<path d="M3775 381 c-9 -15 15 -25 28 -12 9 9 7 10 -7 5 -13 -5 -17 -4 -12 4
4 7 5 12 2 12 -3 0 -7 -4 -11 -9z"/>
<path d="M1935 370 c-4 -6 -11 -7 -17 -4 -7 4 -8 2 -4 -5 6 -9 11 -9 22 0 14
11 18 19 10 19 -3 0 -8 -5 -11 -10z"/>
<path d="M2055 371 c-3 -5 -2 -12 3 -15 5 -3 9 1 9 9 0 17 -3 19 -12 6z"/>
<path d="M2284 362 c23 -26 23 -26 23 -7 0 8 -3 13 -5 10 -3 -3 -12 1 -21 7
-10 8 -9 4 3 -10z"/>
<path d="M2631 364 c0 -11 3 -14 6 -6 3 7 2 16 -1 19 -3 4 -6 -2 -5 -13z"/>
<path d="M2686 363 c-6 -14 -5 -15 5 -6 7 7 10 15 7 18 -3 3 -9 -2 -12 -12z"/>
<path d="M2866 363 c-6 -14 -5 -15 5 -6 7 7 10 15 7 18 -3 3 -9 -2 -12 -12z"/>
<path d="M2910 376 c0 -2 8 -10 18 -17 15 -13 16 -12 3 4 -13 16 -21 21 -21
13z"/>
<path d="M3200 371 c0 -6 4 -13 10 -16 6 -3 7 1 4 9 -7 18 -14 21 -14 7z"/>
<path d="M3670 370 c-9 -6 -10 -10 -3 -10 6 0 15 5 18 10 8 12 4 12 -15 0z"/>
<path d="M3833 361 c0 -11 5 -17 9 -15 5 3 6 9 3 14 -3 4 1 11 7 13 8 4 7 6
-4 6 -11 1 -16 -6 -15 -18z"/>
<path d="M3878 373 c7 -3 16 -2 19 1 4 3 -2 6 -13 5 -11 0 -14 -3 -6 -6z"/>
<path d="M3941 377 c2 -1 13 -9 24 -17 19 -14 19 -14 6 3 -7 9 -18 17 -24 17
-6 0 -8 -1 -6 -3z"/>
<path d="M4193 365 c0 -8 4 -15 9 -15 4 0 8 4 8 9 0 6 -4 12 -8 15 -5 3 -9 -1
-9 -9z"/>
<path d="M4630 376 c0 -2 8 -10 18 -17 15 -13 16 -12 3 4 -13 16 -21 21 -21
13z"/>
<path d="M4668 373 c7 -3 16 -2 19 1 4 3 -2 6 -13 5 -11 0 -14 -3 -6 -6z"/>
<path d="M4700 376 c0 -2 7 -7 16 -10 8 -3 12 -2 9 4 -6 10 -25 14 -25 6z"/>
<path d="M5475 369 c-4 -6 -5 -12 -2 -15 2 -3 7 2 10 11 7 17 1 20 -8 4z"/>
<path d="M2513 353 c0 -9 4 -10 14 -2 7 6 13 12 13 14 0 1 -6 2 -13 2 -8 0
-14 -6 -14 -14z"/>
<path d="M2893 351 c0 -11 5 -18 9 -15 4 3 5 11 1 19 -7 21 -12 19 -10 -4z"/>
<path d="M2970 366 c0 -2 7 -7 16 -10 8 -3 12 -2 9 4 -6 10 -25 14 -25 6z"/>
<path d="M3353 355 c0 -8 4 -12 9 -9 5 3 6 10 3 15 -9 13 -12 11 -12 -6z"/>
<path d="M3450 366 c0 -2 7 -7 16 -10 8 -3 12 -2 9 4 -6 10 -25 14 -25 6z"/>
<path d="M4000 359 c-12 -9 -12 -10 4 -5 10 4 26 1 35 -6 14 -12 14 -11 2 5
-16 20 -21 21 -41 6z"/>
<path d="M4330 358 c0 -6 3 -8 7 -5 3 4 11 2 18 -3 8 -7 12 -6 12 3 0 7 -9 14
-19 14 -10 1 -18 -3 -18 -9z"/>
<path d="M4436 353 c-6 -14 -5 -15 5 -6 7 7 10 15 7 18 -3 3 -9 -2 -12 -12z"/>
<path d="M4516 358 c3 -4 0 -8 -7 -8 -7 0 -9 -3 -6 -6 4 -4 13 -2 20 4 8 7 17
9 20 5 4 -3 7 -1 7 5 0 6 -9 10 -19 9 -11 0 -17 -5 -15 -9z"/>
<path d="M4826 362 c-3 -5 1 -9 9 -9 8 0 15 4 15 9 0 4 -4 8 -9 8 -6 0 -12 -4
-15 -8z"/>
<path d="M4890 362 c0 -5 7 -9 15 -9 8 0 12 4 9 9 -3 4 -9 8 -15 8 -5 0 -9 -4
-9 -8z"/>
<path d="M4959 353 c-12 -16 -12 -17 2 -6 9 7 19 10 22 6 4 -3 7 -1 7 5 0 17
-16 15 -31 -5z"/>
<path d="M5170 363 c0 -5 14 -9 31 -9 35 -2 33 5 -5 12 -14 2 -26 1 -26 -3z"/>
<path d="M5270 360 c0 -5 5 -10 10 -10 6 0 10 5 10 10 0 6 -4 10 -10 10 -5 0
-10 -4 -10 -10z"/>
<path d="M5336 358 c3 -5 10 -6 15 -3 13 9 11 12 -6 12 -8 0 -12 -4 -9 -9z"/>
<path d="M5435 361 c-3 -5 -2 -12 3 -15 5 -3 9 1 9 9 0 17 -3 19 -12 6z"/>
<path d="M1655 351 c-3 -5 -2 -12 3 -15 5 -3 9 1 9 9 0 17 -3 19 -12 6z"/>
<path d="M2255 351 c-3 -5 -2 -12 3 -15 5 -3 9 1 9 9 0 17 -3 19 -12 6z"/>
<path d="M3013 345 c0 -8 4 -12 9 -9 5 3 6 10 3 15 -9 13 -12 11 -12 -6z"/>
<path d="M4757 349 c7 -7 15 -10 18 -7 3 3 -2 9 -12 12 -14 6 -15 5 -6 -5z"/>
<path d="M1610 346 c0 -2 7 -7 16 -10 8 -3 12 -2 9 4 -6 10 -25 14 -25 6z"/>
<path d="M1790 346 c0 -2 7 -7 16 -10 8 -3 12 -2 9 4 -6 10 -25 14 -25 6z"/>
<path d="M1970 346 c0 -2 7 -7 16 -10 8 -3 12 -2 9 4 -6 10 -25 14 -25 6z"/>
<path d="M3907 339 c7 -7 15 -10 18 -7 3 3 -2 9 -12 12 -14 6 -15 5 -6 -5z"/>
<path d="M5110 336 c7 -7 13 -7 20 0 6 6 3 10 -10 10 -13 0 -16 -4 -10 -10z"/>
<path d="M5370 340 c0 -5 5 -10 11 -10 5 0 7 5 4 10 -3 6 -8 10 -11 10 -2 0
-4 -4 -4 -10z"/>
<path d="M4895 331 c-3 -5 -2 -12 3 -15 5 -3 9 1 9 9 0 17 -3 19 -12 6z"/>
<path d="M5253 325 c0 -8 4 -12 9 -9 5 3 6 10 3 15 -9 13 -12 11 -12 -6z"/>
<path d="M2116 322 c-3 -5 1 -9 9 -9 8 0 12 4 9 9 -3 4 -7 8 -9 8 -2 0 -6 -4
-9 -8z"/>
<path d="M3150 319 c0 -5 5 -7 10 -4 6 3 10 8 10 11 0 2 -4 4 -10 4 -5 0 -10
-5 -10 -11z"/>
<path d="M3675 321 c-3 -5 -2 -12 3 -15 5 -3 9 1 9 9 0 17 -3 19 -12 6z"/>
<path d="M4575 320 c3 -5 8 -10 11 -10 2 0 4 5 4 10 0 6 -5 10 -11 10 -5 0 -7
-4 -4 -10z"/>
<path d="M3439 233 c-13 -16 -12 -17 4 -4 16 13 21 21 13 21 -2 0 -10 -8 -17
-17z"/>
</g>
</svg>
